# xmcd
#
# Track frame offsets: 
#        150
#        13660
#        36362
#        49247
#        62122
#        78076
#        89033
#        108929
#        133216
#        147703
#
# Disc length: 2269 seconds
#
# Revision: 0
# Processed by: cddbd v1.5.1PL2 Copyright (c) Steve Scherf et al.
# Submitted via: ExactAudioCopy v0.95b3
#
DISCID=9108db0a
DTITLE=Matty Charles and the Valentines - Land Beyond The Sea
DYEAR=2003
DGENRE=Country
TTITLE0=Long Gone
TTITLE1=At the Pictureshow
TTITLE2=Lover's Lane
TTITLE3=Mama, I Don't Wanna Go Insane
TTITLE4=Valentine Song
TTITLE5=Always Something New
TTITLE6=Where They're Gonna Bury Me
TTITLE7=Sister May
TTITLE8=Land Beyond the Sea
TTITLE9=Lonesome Lull
EXTD=
EXTT0=
EXTT1=
EXTT2=
EXTT3=
EXTT4=
EXTT5=
EXTT6=
EXTT7=
EXTT8=
EXTT9=
PLAYORDER=
